<svg width="215" height="47" viewBox="0 0 215 47" fill="none" xmlns="http://www.w3.org/2000/svg"><path d="M21.8153 37.7906C21.8153 37.7906 15.9981 40.3733 10.1061 36.3999C4.21402 32.4266 3.63979 24.0825 3.63979 24.0825C3.63979 24.0825 -1.27858 24.5544 0.319265 30.1916C0.943424 32.4514 3.21536 35.5307 6.31119 37.8899C10.9799 41.4411 17.596 43.3781 23.488 38.4611L21.8153 37.7906Z" fill="#98CB9F"></path><path d="M21.8153 37.7908L23.488 38.4861C21.9901 39.7278 20.4421 40.5224 18.8942 40.9695C18.1452 40.2244 17.4212 39.4546 16.7471 38.5854C19.7181 38.7096 21.8153 37.7908 21.8153 37.7908Z" fill="#6BC2C6"></path><path d="M0.318853 30.1916C-1.25402 24.5544 3.63937 24.0825 3.63937 24.0825C3.63937 24.0825 4.23856 32.4017 10.1057 36.3751C12.4525 37.9644 14.7993 38.5108 16.7467 38.5853C17.4208 39.4544 18.1448 40.2243 18.8938 40.9693C14.3499 42.2854 9.80606 40.5471 6.31077 37.8899C3.21495 35.5307 0.967978 32.4514 0.318853 30.1916Z" fill="url(#paint0_linear)"></path><path d="M0.768649 28.5777C0.768649 28.5777 0.69375 26.9387 2.26662 25.6474C2.34152 25.5729 2.44139 25.5232 2.51629 25.4487C4.38876 24.1574 -0.279934 26.1689 0.768649 28.5777Z" fill="#666699"></path><path d="M7.50976 36.4996L6.63594 35.8291L8.15889 34.6371C8.28372 34.7613 8.40855 34.9103 8.55835 35.0344L7.4848 35.9036L8.30869 36.5244L6.8856 38.2379C6.66091 38.0889 6.46118 37.9399 6.23648 37.7661L7.50976 36.4996Z" fill="#666699"></path><path d="M26.2763 40.8204L25.1029 46.1596H29.5219V41.6896C29.497 41.6647 28.1488 40.1499 26.2763 40.8204Z" fill="#333366"></path><path d="M37.5363 41.2422L38.7097 46.5565H34.2906V42.0865C34.3156 42.0865 35.6638 40.5717 37.5363 41.2422Z" fill="#333366"></path><path d="M27.0252 38.5855C28.9476 37.617 30.3458 39.7775 30.3458 39.7775V43.6018C28.9976 43.4031 27.6744 43.2045 26.3262 42.8816L27.0252 38.5855Z" fill="#004841"></path><path d="M40.2827 39.4048L41.506 46.979H36.9622V40.6217C36.9622 40.6217 38.3603 38.4612 40.2827 39.4048Z" fill="#BEE0DA"></path><path d="M40.2827 39.4047C38.3603 38.4362 36.9622 40.5967 36.9622 40.5967V44.421C38.3103 44.2224 39.6336 44.0237 40.9817 43.7009L40.2827 39.4047Z" fill="#6BC2C6"></path><path d="M23.555 39.4048L22.3317 46.979H26.8755V40.6217C26.9005 40.6217 25.5024 38.4612 23.555 39.4048Z" fill="#666699"></path><path d="M23.5551 39.4047C25.4776 38.4362 26.8757 40.5967 26.8757 40.5967V44.421C25.5275 44.2224 24.2043 44.0237 22.8561 43.7009L23.5551 39.4047Z" fill="#333366"></path><path d="M23.1806 3.94253C22.9809 4.04186 19.8102 -1.09867 18.4121 0.54034C17.0139 2.17935 16.2899 8.98373 16.2899 8.98373L23.1806 3.94253Z" fill="url(#paint1_radial)"></path><path d="M22.3572 5.35793C22.2074 5.43243 20.2101 2.15441 19.3113 3.19741C18.4125 4.24042 17.9631 8.56145 17.9631 8.56145L22.3572 5.35793Z" fill="url(#paint2_radial)"></path><path d="M42.3044 4.48879C42.5042 4.58813 45.6749 -0.552406 47.073 1.0866C48.4711 2.72562 49.1952 9.52999 49.1952 9.52999L42.3044 4.48879Z" fill="url(#paint3_radial)"></path><path d="M43.1534 5.9291C43.2783 5.97876 45.3005 2.72558 46.1993 3.76858C47.0981 4.81159 47.5475 9.13262 47.5475 9.13262L43.1534 5.9291Z" fill="url(#paint4_radial)"></path><path d="M32.4679 1.55835C20.6089 1.55835 10.9968 11.1192 10.9968 22.9152C10.9968 34.7111 20.6089 44.272 32.4679 44.272V1.55835Z" fill="url(#paint5_radial)"></path><path d="M25.9355 33.0562C20.5471 32.1594 15.2845 29.743 11.2054 26.106C11.2306 26.2554 11.2558 26.4049 11.281 26.5544C11.3062 26.7287 11.3565 26.928 11.3817 27.1024C11.4069 27.2768 11.4572 27.4263 11.4824 27.5757C11.5328 27.7501 11.558 27.9245 11.6083 28.074C11.6587 28.2483 11.6839 28.3978 11.7342 28.5722C11.7846 28.7466 11.8349 28.896 11.8853 29.0704C11.9357 29.2199 11.986 29.3943 12.0364 29.5437C12.0867 29.6932 12.1371 29.8676 12.1874 30.0171C12.2378 30.1665 12.3133 30.3409 12.3637 30.4904C12.4141 30.6398 12.4896 30.7893 12.54 30.9637C12.6155 31.1132 12.6659 31.2626 12.7414 31.4121C12.8169 31.5616 12.8673 31.711 12.9428 31.8605C13.0184 32.01 13.0939 32.1594 13.1443 32.3089C13.2198 32.4584 13.2953 32.6078 13.3709 32.7573C13.4464 32.9068 13.522 33.0313 13.5975 33.1808C13.673 33.3303 13.7738 33.4797 13.8493 33.6292C13.9248 33.7538 14.0004 33.9032 14.0759 34.0278C14.1766 34.2022 14.2774 34.3516 14.3781 34.5011C14.4536 34.6257 14.5291 34.7253 14.6047 34.8499C14.7809 35.1239 14.9824 35.373 15.1586 35.6221C15.2342 35.7218 15.3349 35.8463 15.4104 35.946C15.5363 36.0954 15.637 36.2449 15.7629 36.3944C15.8637 36.5189 15.9644 36.6186 16.0651 36.7431C16.191 36.8677 16.2917 37.0172 16.4176 37.1417C16.5183 37.2663 16.6191 37.3659 16.7198 37.4656C16.8457 37.5901 16.9716 37.7147 17.0975 37.8392C17.1982 37.9389 17.3241 38.0634 17.4248 38.1631C17.5507 38.2876 17.6766 38.4122 17.8025 38.5368C17.9032 38.6364 18.0291 38.736 18.155 38.8357C18.2809 38.9603 18.432 39.0599 18.5579 39.1845C18.6838 39.2841 18.7845 39.3837 18.9104 39.4834C19.0615 39.608 19.1874 39.7076 19.3384 39.8072C19.4643 39.9069 19.5651 39.9816 19.691 40.0813C19.842 40.1809 19.9931 40.3055 20.1442 40.4051C20.2701 40.4798 20.3708 40.5795 20.4967 40.6542C20.673 40.7539 20.8492 40.8784 21.0003 40.9781C21.101 41.0528 21.2269 41.1275 21.3276 41.1774C21.5543 41.3019 21.7809 41.4514 22.0075 41.576C22.0578 41.6009 22.1334 41.6507 22.1837 41.6756C22.4859 41.8251 22.7629 41.9745 23.065 42.124C23.1657 42.1738 23.2665 42.2236 23.3672 42.2735C23.5686 42.3731 23.7701 42.4728 23.9715 42.5475C24.0974 42.5973 24.2233 42.6471 24.3492 42.697C24.5254 42.7717 24.7269 42.8464 24.9031 42.9212C25.029 42.971 25.1801 43.0208 25.306 43.0706C25.4823 43.1454 25.6837 43.1952 25.86 43.2699C26.011 43.3198 26.1369 43.3447 26.288 43.3945C26.4643 43.4443 26.6657 43.4941 26.842 43.544C26.993 43.5938 27.1189 43.6187 27.27 43.6436C27.4715 43.6934 27.6477 43.7432 27.8491 43.7682C28.0002 43.7931 28.1261 43.818 28.2772 43.8678C28.4786 43.9176 28.6801 43.9425 28.8815 43.9674C29.0326 43.9924 29.1585 44.0173 29.3096 44.0422C29.511 44.0671 29.7376 44.092 29.939 44.1169C30.0649 44.1418 30.216 44.1418 30.3419 44.1667C30.5685 44.1917 30.8203 44.2166 31.0469 44.2166C31.1728 44.2166 31.2736 44.2415 31.3995 44.2415C31.752 44.2664 32.1045 44.2664 32.457 44.2664V33.7039C30.3419 33.8783 28.1009 33.4797 25.9355 33.0562Z" fill="url(#paint6_linear)"></path><path d="M32.3682 1.55835C44.2272 1.55835 53.8392 11.1192 53.8392 22.9152C53.8392 34.7111 44.2272 44.272 32.3682 44.272V1.55835Z" fill="url(#paint7_radial)"></path><path d="M38.9787 33.0562C44.3671 32.1594 49.6296 29.743 53.7087 26.106C53.6835 26.2554 53.6584 26.4049 53.6332 26.5544C53.608 26.7287 53.5576 26.928 53.5325 27.1024C53.5073 27.2768 53.4569 27.4263 53.4317 27.5757C53.3814 27.7501 53.3562 27.9245 53.3058 28.074C53.2555 28.2483 53.2303 28.3978 53.1799 28.5722C53.1296 28.7466 53.0792 28.896 53.0289 29.0704C52.9785 29.2199 52.9281 29.3943 52.8778 29.5437C52.8274 29.6932 52.7771 29.8676 52.7267 30.0171C52.6764 30.1665 52.6008 30.3409 52.5505 30.4904C52.5001 30.6398 52.4246 30.7893 52.3742 30.9637C52.2987 31.1132 52.2483 31.2626 52.1728 31.4121C52.0972 31.5616 52.0469 31.711 51.9713 31.8605C51.8958 32.01 51.8202 32.1594 51.7699 32.3089C51.6944 32.4584 51.6188 32.6078 51.5433 32.7573C51.4677 32.9068 51.3922 33.0313 51.3167 33.1808C51.2411 33.3303 51.1404 33.4797 51.0649 33.6292C50.9893 33.7538 50.9138 33.9032 50.8382 34.0278C50.7375 34.2022 50.6368 34.3516 50.5361 34.5011C50.4606 34.6257 50.385 34.7253 50.3095 34.8499C50.1332 35.1239 49.9318 35.373 49.7555 35.6221C49.68 35.7218 49.5793 35.8463 49.5037 35.946C49.3778 36.0954 49.2771 36.2449 49.1512 36.3944C49.0505 36.5189 48.9498 36.6186 48.8491 36.7431C48.7232 36.8677 48.6224 37.0172 48.4965 37.1417C48.3958 37.2663 48.2951 37.3659 48.1944 37.4656C48.0685 37.5901 47.9426 37.7147 47.8167 37.8392C47.716 37.9389 47.5901 38.0634 47.4894 38.1631C47.3635 38.2876 47.2376 38.4122 47.1117 38.5368C47.011 38.6364 46.8851 38.736 46.7592 38.8357C46.6333 38.9603 46.4822 39.0599 46.3563 39.1845C46.2304 39.2841 46.1297 39.3837 46.0038 39.4834C45.8527 39.6079 45.7268 39.7076 45.5757 39.8072C45.4498 39.9069 45.3491 39.9816 45.2232 40.0813C45.0721 40.1809 44.921 40.3055 44.77 40.4051C44.6441 40.4798 44.5434 40.5795 44.4175 40.6542C44.2412 40.7539 44.0649 40.8784 43.9139 40.9781C43.8131 41.0528 43.6872 41.1275 43.5865 41.1774C43.3599 41.3019 43.1333 41.4514 42.9067 41.576C42.8563 41.6009 42.7808 41.6507 42.7304 41.6756C42.4283 41.8251 42.1513 41.9745 41.8491 42.124C41.7484 42.1738 41.6477 42.2236 41.547 42.2735C41.3455 42.3731 41.1441 42.4728 40.9427 42.5475C40.8168 42.5973 40.6909 42.6471 40.565 42.697C40.3887 42.7717 40.1873 42.8464 40.011 42.9212C39.8851 42.971 39.7341 43.0208 39.6082 43.0706C39.4319 43.1454 39.2305 43.1952 39.0542 43.2699C38.9031 43.3198 38.7772 43.3447 38.6262 43.3945C38.4499 43.4443 38.2485 43.4941 38.0722 43.544C37.9211 43.5938 37.7952 43.6187 37.6441 43.6436C37.4427 43.6934 37.2665 43.7432 37.065 43.7682C36.9139 43.7931 36.788 43.818 36.637 43.8678C36.4355 43.9176 36.2341 43.9425 36.0327 43.9674C35.8816 43.9924 35.7557 44.0173 35.6046 44.0422C35.4032 44.0671 35.1765 44.092 34.9751 44.1169C34.8492 44.1418 34.6981 44.1418 34.5722 44.1667C34.3456 44.1917 34.0938 44.2166 33.8672 44.2166C33.7413 44.2166 33.6406 44.2415 33.5147 44.2415C33.1622 44.2664 32.8097 44.2664 32.4572 44.2664V33.7039C34.5722 33.8783 36.8384 33.4797 38.9787 33.0562Z" fill="url(#paint8_radial)"></path><path d="M34.3408 22.3192C34.3408 22.3192 32.2686 21.3258 30.5958 22.3192L32.4683 24.3059L34.3408 22.3192Z" fill="#BEE0DA"></path><path d="M30.8699 22.6174L32.4677 24.3061L34.0406 22.6423C33.4664 22.4188 32.1182 22.0463 30.8699 22.6174Z" fill="#001912"></path><path d="M12.2947 24.5045L8.97422 23.8837C8.79946 23.8588 8.67463 23.6602 8.69959 23.4863L8.77449 23.0145C8.79946 22.8407 8.99919 22.7165 9.17395 22.7413L12.4945 23.3622C12.6692 23.387 12.7941 23.5857 12.7691 23.7595L12.6942 24.2313C12.6692 24.4052 12.4945 24.5293 12.2947 24.5045Z" fill="#333366"></path><path d="M12.6949 22.4433L9.37437 21.8225C9.1996 21.7977 9.07477 21.599 9.09974 21.4252L9.17464 20.9533C9.1996 20.7795 9.39933 20.6553 9.5741 20.6802L12.8946 21.301C13.0694 21.3258 13.1942 21.5245 13.1693 21.6983L13.0944 22.1702C13.0444 22.344 12.8697 22.4682 12.6949 22.4433Z" fill="#333366"></path><path d="M55.1122 20.6802L51.7917 21.301C51.617 21.3258 51.4921 21.5245 51.5171 21.6983L51.592 22.1702C51.617 22.344 51.8167 22.4682 51.9915 22.4433L55.312 21.8225C55.4867 21.7977 55.6116 21.599 55.5866 21.4252L55.5117 20.9533C55.4867 20.7795 55.312 20.6553 55.1122 20.6802Z" fill="#333366"></path><path d="M55.512 22.7413L52.1915 23.3622C52.0167 23.387 51.8919 23.5857 51.9169 23.7595L51.9918 24.2313C52.0167 24.4052 52.2165 24.5293 52.3912 24.5045L55.7118 23.8837C55.8865 23.8588 56.0113 23.6602 55.9864 23.4863L55.9115 23.0145C55.8616 22.8407 55.6868 22.7165 55.512 22.7413Z" fill="#333366"></path><path d="M49.1205 29.869L49.0206 30.1422C48.9957 30.1919 46.6239 36.3009 41.1313 39.6286L40.7817 39.8521L43.7527 41.0937C43.9025 40.9944 44.0523 40.9199 44.1772 40.8206L41.6805 39.8024C46.3742 36.7727 48.746 31.806 49.2953 30.614L51.6171 32.6255C51.692 32.5014 51.742 32.3772 51.8169 32.253L49.1205 29.869Z" fill="#6BC2C6"></path><path d="M23.7299 39.6286C18.2373 36.3009 15.8655 30.2167 15.8405 30.1422L15.7407 29.869L13.1442 32.1289C13.1691 32.2034 13.1941 32.253 13.244 32.3275C13.269 32.402 13.3189 32.4517 13.3439 32.5262L15.5909 30.5892C16.1152 31.806 18.487 36.7727 23.2056 39.7776L20.7839 40.7709C20.9087 40.8454 21.0086 40.9199 21.1334 40.9944C21.1584 41.0193 21.1833 41.0193 21.2083 41.0441L24.1294 39.8521L23.7299 39.6286Z" fill="#333366"></path><path d="M22.7563 5.01018C22.8312 4.93568 25.7772 4.68735 28.1241 6.57469L27.2503 8.48687C27.2503 8.48687 25.3278 6.15252 22.5815 5.82968L22.7563 5.01018Z" fill="#666699"></path><path d="M28.5986 6.77332C28.5986 6.84782 27.6249 8.75999 27.6249 8.75999L27.9994 9.03316L28.5986 6.77332Z" fill="#666699"></path><path d="M41.4812 4.86138C41.4063 4.78688 38.4602 4.53854 36.1134 6.42589L36.9872 8.33807C36.9872 8.33807 38.9096 6.00372 41.6559 5.68088L41.4812 4.86138Z" fill="#BEE0DA"></path><path d="M35.7885 6.57446C35.8384 6.64896 36.2378 8.73497 36.2378 8.73497H36.6872L35.7885 6.57446Z" fill="#BEE0DA"></path><path d="M24.0792 23.7846C28.5191 23.7846 32.1184 20.7271 32.1184 16.9554C32.1184 13.1838 28.5191 10.1262 24.0792 10.1262C19.6393 10.1262 16.04 13.1838 16.04 16.9554C16.04 20.7271 19.6393 23.7846 24.0792 23.7846Z" fill="url(#paint9_linear)"></path><path d="M41.4308 23.3872C45.8707 23.3872 49.4699 20.3296 49.4699 16.558C49.4699 12.7863 45.8707 9.72876 41.4308 9.72876C36.9909 9.72876 33.3916 12.7863 33.3916 16.558C33.3916 20.3296 36.9909 23.3872 41.4308 23.3872Z" fill="url(#paint10_linear)"></path><path d="M32.3432 29.1983C33.1153 29.1983 33.7413 28.5757 33.7413 27.8077C33.7413 27.0396 33.1153 26.417 32.3432 26.417C31.571 26.417 30.9451 27.0396 30.9451 27.8077C30.9451 28.5757 31.571 29.1983 32.3432 29.1983Z" fill="#001912"></path><path d="M42.3297 18.2958L42.7292 17.7495C42.854 17.5757 42.8041 17.3273 42.6293 17.2032L38.8844 14.6205C38.7096 14.4963 38.46 14.546 38.3351 14.7198L37.9357 15.2662C37.8108 15.44 37.8608 15.6883 38.0355 15.8125L41.7805 18.3952C41.9802 18.5193 42.2299 18.4697 42.3297 18.2958Z" fill="#5BC4F1"></path><path d="M38.6089 18.5447L38.1595 18.048C38.0097 17.899 38.0346 17.6258 38.1844 17.5017L41.5299 14.4472C41.6797 14.2982 41.9544 14.323 42.0792 14.472L42.5286 14.9687C42.6784 15.1177 42.6534 15.3908 42.5036 15.515L39.1581 18.5695C39.0083 18.7185 38.7587 18.7185 38.6089 18.5447Z" fill="#5BC4F1"></path><path d="M22.831 15.4403C23.6299 15.4403 24.2541 14.8692 24.2541 14.1987C24.2541 14 24.2042 13.8262 24.1043 13.6772C24.304 13.6275 24.5287 13.6027 24.7284 13.6027C26.1266 13.6027 27.275 14.7202 27.275 16.1108C27.275 17.5015 26.1266 18.619 24.7284 18.619C23.3303 18.619 22.1819 17.5015 22.1819 16.1108C22.1819 15.8625 22.2318 15.6142 22.2818 15.3658C22.4815 15.4155 22.6562 15.4403 22.831 15.4403Z" fill="#5BC4F1"></path><path d="M178.872 20.8321H183.951C183.795 19.451 183.417 18.2257 182.815 17.1564C182.214 16.0871 181.445 15.196 180.509 14.4831C179.596 13.748 178.549 13.191 177.368 12.8123C176.21 12.4336 174.974 12.2443 173.659 12.2443C171.832 12.2443 170.184 12.5673 168.714 13.2133C167.266 13.8594 166.04 14.7505 165.038 15.8866C164.035 17.0227 163.267 18.3594 162.732 19.8965C162.198 21.4114 161.93 23.0599 161.93 24.8421C161.93 26.5797 162.198 28.2059 162.732 29.7208C163.267 31.2133 164.035 32.5166 165.038 33.6304C166.04 34.7443 167.266 35.6242 168.714 36.2703C170.184 36.894 171.832 37.2059 173.659 37.2059C175.129 37.2059 176.477 36.9832 177.702 36.5376C178.928 36.0921 179.997 35.446 180.91 34.5995C181.824 33.753 182.559 32.7282 183.116 31.5252C183.673 30.3223 184.018 28.9745 184.152 27.4819H179.073C178.872 29.0859 178.315 30.378 177.402 31.3582C176.511 32.3383 175.263 32.8284 173.659 32.8284C172.478 32.8284 171.476 32.6057 170.652 32.1601C169.827 31.6923 169.159 31.0797 168.647 30.3223C168.134 29.5648 167.756 28.7183 167.511 27.7826C167.288 26.8247 167.176 25.8445 167.176 24.8421C167.176 23.795 167.288 22.7814 167.511 21.8012C167.756 20.821 168.134 19.9522 168.647 19.1948C169.159 18.4151 169.827 17.8024 170.652 17.3569C171.476 16.8891 172.478 16.6552 173.659 16.6552C174.305 16.6552 174.918 16.7665 175.497 16.9893C176.099 17.1898 176.633 17.4794 177.101 17.8581C177.569 18.2368 177.959 18.6824 178.271 19.1948C178.582 19.6849 178.783 20.2307 178.872 20.8321Z" fill="#6BC2C6"></path><path d="M186.577 24.7084C186.644 23.5945 186.922 22.67 187.412 21.9349C187.902 21.1997 188.526 20.6094 189.284 20.1638C190.041 19.7183 190.888 19.4064 191.823 19.2282C192.781 19.0277 193.739 18.9274 194.697 18.9274C195.566 18.9274 196.446 18.9943 197.337 19.1279C198.228 19.2393 199.041 19.4732 199.776 19.8297C200.511 20.1861 201.113 20.6873 201.581 21.3334C202.048 21.9571 202.282 22.7925 202.282 23.8396V32.8284C202.282 33.6082 202.327 34.3544 202.416 35.0673C202.505 35.7802 202.661 36.3148 202.884 36.6713H198.072C197.983 36.4039 197.905 36.1366 197.838 35.8693C197.793 35.5797 197.76 35.2901 197.738 35.0005C196.98 35.7802 196.089 36.326 195.065 36.6379C194.04 36.9497 192.993 37.1057 191.923 37.1057C191.099 37.1057 190.331 37.0054 189.618 36.8049C188.905 36.6044 188.281 36.2926 187.746 35.8693C187.212 35.446 186.789 34.9114 186.477 34.2653C186.187 33.6193 186.042 32.8507 186.042 31.9596C186.042 30.9794 186.209 30.1775 186.543 29.5537C186.9 28.9077 187.345 28.3953 187.88 28.0166C188.437 27.6378 189.061 27.3594 189.751 27.1812C190.464 26.9807 191.177 26.8247 191.89 26.7133C192.603 26.602 193.305 26.5128 193.995 26.446C194.686 26.3792 195.298 26.2789 195.833 26.1453C196.368 26.0116 196.791 25.8223 197.103 25.5772C197.415 25.3099 197.56 24.9312 197.537 24.4411C197.537 23.9287 197.448 23.5277 197.27 23.2381C197.114 22.9262 196.891 22.6923 196.602 22.5364C196.334 22.3581 196.011 22.2468 195.633 22.2022C195.276 22.1354 194.886 22.1019 194.463 22.1019C193.527 22.1019 192.792 22.3024 192.258 22.7034C191.723 23.1044 191.411 23.7727 191.322 24.7084H186.577ZM197.537 28.2171C197.337 28.3953 197.081 28.5401 196.769 28.6515C196.479 28.7406 196.156 28.8185 195.8 28.8854C195.466 28.9522 195.109 29.0079 194.73 29.0525C194.352 29.097 193.973 29.1527 193.594 29.2195C193.238 29.2864 192.881 29.3755 192.525 29.4869C192.191 29.5982 191.89 29.7542 191.623 29.9547C191.378 30.1329 191.177 30.3668 191.021 30.6564C190.865 30.946 190.787 31.3136 190.787 31.7591C190.787 32.1824 190.865 32.5388 191.021 32.8284C191.177 33.1181 191.389 33.352 191.656 33.5302C191.923 33.6861 192.235 33.7975 192.592 33.8643C192.948 33.9312 193.316 33.9646 193.694 33.9646C194.63 33.9646 195.354 33.8086 195.866 33.4968C196.379 33.1849 196.758 32.8173 197.003 32.394C197.248 31.9485 197.392 31.503 197.437 31.0574C197.504 30.6119 197.537 30.2554 197.537 29.9881V28.2171Z" fill="#6BC2C6"></path><path d="M211.525 19.3953V14.2158H206.78V19.3953H203.906V22.5698H206.78V32.7616C206.78 33.6304 206.924 34.3322 207.214 34.8668C207.504 35.4015 207.893 35.8136 208.383 36.1032C208.896 36.3928 209.475 36.5822 210.121 36.6713C210.789 36.7827 211.491 36.8384 212.226 36.8384C212.694 36.8384 213.173 36.8272 213.663 36.8049C214.153 36.7827 214.599 36.7381 215 36.6713V32.9955C214.777 33.0401 214.543 33.0735 214.298 33.0958C214.053 33.1181 213.797 33.1292 213.53 33.1292C212.728 33.1292 212.193 32.9955 211.926 32.7282C211.658 32.4609 211.525 31.9262 211.525 31.1242V22.5698H215V19.3953H211.525Z" fill="#6BC2C6"></path><path d="M67.4731 22.8036H74.29C75.2924 22.8036 76.1278 22.5251 76.7962 21.9682C77.4645 21.389 77.7986 20.5647 77.7986 19.4954C77.7986 18.2925 77.4979 17.4459 76.8964 16.9558C76.2949 16.4657 75.4261 16.2207 74.29 16.2207H67.4731V22.8036ZM63.2961 12.8123H74.8915C77.0301 12.8123 78.7454 13.3024 80.0375 14.2826C81.3296 15.2628 81.9756 16.7442 81.9756 18.7269C81.9756 19.9298 81.6749 20.9657 81.0734 21.8345C80.4942 22.6811 79.6588 23.3383 78.5672 23.8061V23.8729C80.0375 24.1848 81.1514 24.8865 81.9088 25.9781C82.6662 27.0474 83.0449 28.3952 83.0449 30.0214C83.0449 30.9571 82.8779 31.837 82.5437 32.6613C82.2095 33.4633 81.686 34.165 80.9731 34.7665C80.2603 35.3457 79.3469 35.8135 78.233 36.17C77.1192 36.5041 75.7937 36.6712 74.2566 36.6712H63.2961V12.8123ZM67.4731 33.2628H74.858C76.1278 33.2628 77.108 32.9398 77.7986 32.2937C78.5115 31.6254 78.868 30.6898 78.868 29.4868C78.868 28.3061 78.5115 27.4039 77.7986 26.7801C77.108 26.1341 76.1278 25.811 74.858 25.811H67.4731V33.2628Z" fill="#001912"></path><path d="M86.3899 12.8123H90.1993V16.4212H86.3899V12.8123ZM86.3899 19.3952H90.1993V36.6712H86.3899V19.3952Z" fill="#001912"></path><path d="M94.3499 19.3952H97.9589V21.9348L98.0257 22.0016C98.6049 21.0437 99.3623 20.2974 100.298 19.7628C101.234 19.2058 102.27 18.9274 103.406 18.9274C105.299 18.9274 106.792 19.4175 107.883 20.3977C108.975 21.3779 109.521 22.8482 109.521 24.8086V36.6712H105.711V25.811C105.667 24.4521 105.377 23.4719 104.843 22.8704C104.308 22.2467 103.472 21.9348 102.336 21.9348C101.69 21.9348 101.111 22.0573 100.599 22.3024C100.086 22.5251 99.6519 22.8482 99.2955 23.2714C98.9391 23.6724 98.6606 24.1514 98.4601 24.7083C98.2596 25.2652 98.1594 25.8556 98.1594 26.4794V36.6712H94.3499V19.3952Z" fill="#001912"></path><path d="M128.007 32.8284C128.007 33.2962 128.063 33.6304 128.174 33.8309C128.308 34.0313 128.553 34.1316 128.909 34.1316C129.021 34.1316 129.154 34.1316 129.31 34.1316C129.466 34.1316 129.644 34.1093 129.845 34.0648V36.7046C129.711 36.7492 129.533 36.7937 129.31 36.8383C129.11 36.9051 128.898 36.9608 128.675 37.0054C128.453 37.0499 128.23 37.0833 128.007 37.1056C127.784 37.1279 127.595 37.139 127.439 37.139C126.659 37.139 126.013 36.9831 125.501 36.6712C124.988 36.3593 124.654 35.8135 124.498 35.0338C123.741 35.769 122.805 36.3036 121.691 36.6378C120.6 36.9719 119.542 37.139 118.517 37.139C117.737 37.139 116.991 37.0276 116.278 36.8049C115.565 36.6044 114.93 36.3036 114.373 35.9026C113.839 35.4794 113.404 34.9559 113.07 34.3321C112.758 33.6861 112.602 32.9398 112.602 32.0932C112.602 31.0239 112.792 30.1551 113.17 29.4868C113.571 28.8185 114.084 28.295 114.708 27.9162C115.354 27.5375 116.066 27.2702 116.846 27.1143C117.648 26.936 118.45 26.8024 119.252 26.7133C119.943 26.5796 120.6 26.4905 121.224 26.4459C121.847 26.3791 122.393 26.2789 122.861 26.1452C123.351 26.0115 123.73 25.811 123.997 25.5437C124.287 25.2541 124.432 24.8308 124.432 24.2739C124.432 23.7838 124.309 23.3828 124.064 23.0709C123.841 22.7591 123.552 22.5251 123.195 22.3692C122.861 22.191 122.482 22.0796 122.059 22.035C121.636 21.9682 121.235 21.9348 120.856 21.9348C119.787 21.9348 118.907 22.1576 118.216 22.6031C117.526 23.0487 117.136 23.7393 117.047 24.6749H113.237C113.304 23.561 113.571 22.6365 114.039 21.9014C114.507 21.1662 115.097 20.5759 115.81 20.1303C116.545 19.6848 117.37 19.3729 118.283 19.1947C119.196 19.0165 120.132 18.9274 121.09 18.9274C121.937 18.9274 122.772 19.0165 123.596 19.1947C124.42 19.3729 125.156 19.6625 125.802 20.0635C126.47 20.4645 127.005 20.988 127.406 21.6341C127.807 22.2578 128.007 23.0264 128.007 23.9397V32.8284ZM124.198 28.0165C123.618 28.3952 122.906 28.6291 122.059 28.7182C121.212 28.7851 120.366 28.8964 119.519 29.0524C119.118 29.1192 118.729 29.2195 118.35 29.3531C117.971 29.4645 117.637 29.6316 117.347 29.8544C117.058 30.0549 116.824 30.3333 116.646 30.6898C116.49 31.0239 116.412 31.436 116.412 31.9261C116.412 32.3494 116.534 32.7059 116.779 32.9955C117.024 33.2851 117.314 33.519 117.648 33.6972C118.005 33.8531 118.383 33.9645 118.784 34.0313C119.208 34.0982 119.586 34.1316 119.92 34.1316C120.344 34.1316 120.8 34.0759 121.29 33.9645C121.781 33.8531 122.237 33.6638 122.661 33.3964C123.106 33.1291 123.474 32.795 123.763 32.394C124.053 31.9707 124.198 31.4583 124.198 30.8568V28.0165Z" fill="#001912"></path><path d="M132.106 19.3952H135.681V22.7368H135.748C135.86 22.269 136.071 21.8123 136.383 21.3667C136.717 20.9212 137.107 20.5202 137.553 20.1638C138.021 19.785 138.533 19.4843 139.09 19.2615C139.647 19.0388 140.215 18.9274 140.794 18.9274C141.24 18.9274 141.54 18.9385 141.696 18.9608C141.875 18.9831 142.053 19.0053 142.231 19.0276V22.7034C141.964 22.6588 141.685 22.6254 141.396 22.6031C141.128 22.5586 140.861 22.5363 140.594 22.5363C139.948 22.5363 139.335 22.6699 138.756 22.9373C138.199 23.1823 137.709 23.561 137.285 24.0734C136.862 24.5635 136.528 25.1761 136.283 25.9113C136.038 26.6464 135.915 27.493 135.915 28.4509V36.6712H132.106V19.3952Z" fill="#001912"></path><path d="M141.949 19.3952H146.126L150.637 32.2937H150.704L155.081 19.3952H159.058L152.341 37.6068C152.03 38.3866 151.718 39.1328 151.406 39.8457C151.116 40.5586 150.749 41.1824 150.303 41.717C149.88 42.2739 149.345 42.7083 148.699 43.0202C148.053 43.3544 147.229 43.5215 146.226 43.5215C145.335 43.5215 144.455 43.4546 143.586 43.321V40.113C143.898 40.1576 144.199 40.2022 144.489 40.2467C144.778 40.3135 145.079 40.347 145.391 40.347C145.836 40.347 146.204 40.2913 146.494 40.1799C146.783 40.0685 147.017 39.9014 147.195 39.6786C147.396 39.4781 147.563 39.2331 147.697 38.9435C147.83 38.6539 147.953 38.3197 148.064 37.941L148.499 36.6044L141.949 19.3952Z" fill="#001912"></path><defs><linearGradient id="paint0_linear" x1="9.2731" y1="32.6745" x2="4.78576" y2="37.3044" gradientUnits="userSpaceOnUse"><stop stop-color="#DEFFF9"></stop><stop offset="1" stop-color="#57988C"></stop></linearGradient><radialGradient id="paint1_radial" cx="0" cy="0" r="1" gradientUnits="userSpaceOnUse" gradientTransform="translate(19.7061 5.62702) rotate(-94.8645) scale(9.11304 7.18271)"><stop offset="0.39799" stop-color="#543B64"></stop><stop offset="1" stop-color="#543B64" stop-opacity="0"></stop></radialGradient><radialGradient id="paint2_radial" cx="0" cy="0" r="1" gradientUnits="userSpaceOnUse" gradientTransform="translate(20.0928 6.59294) rotate(-90) scale(3.67072 2.79885)"><stop stop-color="#DEFFF9"></stop><stop offset="1" stop-color="#57988C"></stop></radialGradient><radialGradient id="paint3_radial" cx="0" cy="0" r="1" gradientUnits="userSpaceOnUse" gradientTransform="translate(46.5602 0.603945) rotate(87.1376) scale(7.7375 5.88012)"><stop stop-color="#DEFFF9"></stop><stop offset="1" stop-color="#57988C"></stop></radialGradient><radialGradient id="paint4_radial" cx="0" cy="0" r="1" gradientUnits="userSpaceOnUse" gradientTransform="translate(46.1737 4.27462) rotate(105.255) scale(4.40555 3.48445)"><stop offset="0.39799" stop-color="#543B64"></stop><stop offset="1" stop-color="#71468C"></stop></radialGradient><radialGradient id="paint5_radial" cx="0" cy="0" r="1" gradientUnits="userSpaceOnUse" gradientTransform="translate(26.8545 7.94533) rotate(98.8683) scale(27.5702 13.8589)"><stop stop-color="#DEFFF9"></stop><stop offset="1" stop-color="#57988C"></stop></radialGradient><linearGradient id="paint6_linear" x1="23.2192" y1="29.3876" x2="20.5191" y2="41.2159" gradientUnits="userSpaceOnUse"><stop offset="0.359375" stop-color="#6BC2C6"></stop><stop offset="1" stop-color="#398084"></stop></linearGradient><radialGradient id="paint7_radial" cx="0" cy="0" r="1" gradientUnits="userSpaceOnUse" gradientTransform="translate(39.6054 8.13852) rotate(88.7054) scale(34.2044 17.1937)"><stop stop-color="#7F86BE"></stop><stop offset="1" stop-color="#1A1F45"></stop></radialGradient><radialGradient id="paint8_radial" cx="0" cy="0" r="1" gradientUnits="userSpaceOnUse" gradientTransform="translate(36.5127 32.2946) rotate(85.9406) scale(16.5146 19.3246)"><stop offset="0.39799" stop-color="#836298"></stop><stop offset="1" stop-color="#270E36"></stop></radialGradient><linearGradient id="paint9_linear" x1="24.0792" y1="10.1262" x2="24.0792" y2="23.7846" gradientUnits="userSpaceOnUse"><stop stop-color="#001912"></stop><stop offset="1" stop-color="#004834"></stop></linearGradient><linearGradient id="paint10_linear" x1="41.4308" y1="9.72876" x2="41.4308" y2="23.3872" gradientUnits="userSpaceOnUse"><stop stop-color="#001912"></stop><stop offset="1" stop-color="#353569"></stop></linearGradient></defs></svg>